<svg width="176" height="176" fill="none" xmlns="http://www.w3.org/2000/svg">
                      <g clip-path="url(#a)">
                        <path fillRule="evenodd" clipRule="evenodd" d="M25.292 28.36c50.966-35.018 98.696-40.51 129.078 0 22.159 29.547 32.685 82.622 4.985 113.81-2.847 3.206-57.938 51.548-114.674 26.811-61.492-26.811-50.98-118.915-19.39-140.62l.001-.001Z" fill="#EAFCF7"/>
                        <path d="m140.496 66.47-9.659-5.981a3.223 3.223 0 0 0-2.575-.37l-23.944 6.827a3.212 3.212 0 0 0-1.925 1.532 3.165 3.165 0 0 0-.259 2.439l5.023 16.806a3.195 3.195 0 0 0 2.744 2.26c.419.043.842.003 1.246-.117l23.776-7.074a3.217 3.217 0 0 0 2.003-1.743l4.796-10.58a3.172 3.172 0 0 0 .139-2.227 3.189 3.189 0 0 0-1.365-1.773Zm-3.173 4.1a2.618 2.618 0 0 1-.588 1.407 2.657 2.657 0 0 1-4.084-.005 2.613 2.613 0 0 1-.284-2.904 2.628 2.628 0 0 1 1.085-1.077 2.648 2.648 0 0 1 3.285.655c.444.539.655 1.23.586 1.923Z" fill="#00C2FF"/>
                        <path d="M112.175 74.674c-.571-2.037.292-3.677 2.035-4.184 1.744-.508 3.312.43 3.891 2.482.579 2.052-.277 3.677-2.016 4.177-1.74.5-3.334-.441-3.91-2.475Zm4.219-1.213c-.364-1.294-1.034-1.773-1.787-1.556-.754.217-1.081.997-.717 2.273.364 1.276 1.052 1.769 1.783 1.556.732-.214 1.085-.968.721-2.273Zm4.972-4.88 2.031-.581-4.757 14.419-2.031.581 4.757-14.419Zm.531 9.447c-.571-2.033.292-3.677 2.017-4.177 1.725-.5 3.334.441 3.909 2.475.575 2.033-.291 3.677-2.035 4.184-1.743.508-3.308-.445-3.891-2.482Zm4.201-1.206c-.364-1.276-1.034-1.773-1.787-1.556-.754.217-1.07.979-.706 2.273.364 1.294 1.051 1.765 1.787 1.556.735-.21 1.073-.997.713-2.273h-.007Z" fill="#fff"/>
                        <path d="M95.19 44.055H36.84a3.33 3.33 0 0 0-3.33 3.33v52.82a3.33 3.33 0 0 0 3.33 3.33h58.35a3.338 3.338 0 0 0 3.381-3.33v-52.86a3.328 3.328 0 0 0-3.38-3.29h-.001Zm-45 5.63a1.83 1.83 0 1 1 1.83-1.83 1.82 1.82 0 0 1-1.8 1.79l-.03.04Zm31.59 0a1.83 1.83 0 1 1 1.83-1.83 1.83 1.83 0 0 1-1.8 1.79l-.03.04Z" fill="#00C2FF"/>
                        <path d="M92.57 41.355H34.19a3.33 3.33 0 0 0-3.33 3.33v52.87a3.33 3.33 0 0 0 3.33 3.33h58.38a3.33 3.33 0 0 0 3.33-3.33v-52.87a3.33 3.33 0 0 0-3.33-3.33Zm-45 5.63a1.83 1.83 0 1 1 1.83-1.82 1.82 1.82 0 0 1-1.83 1.82Zm31.59 0a1.83 1.83 0 1 1 1.83-1.82 1.82 1.82 0 0 1-1.84 1.82h.01Z" fill="#fff" stroke="#00C2FF" strokeWidth=".5" stroke-linecap="round" stroke-linejoin="round"/>
                        <path d="M92.57 41.355H34.19a3.33 3.33 0 0 0-3.33 3.33v5h65v-5a3.33 3.33 0 0 0-3.29-3.33Z" fill="#00C2FF"/>
                        <path d="M49.3 38.915a2.638 2.638 0 0 0-3.644-2.438 2.638 2.638 0 0 0-1.626 2.438v6.45c0 1.458 1.18 2.64 2.635 2.64a2.638 2.638 0 0 0 2.635-2.64v-6.45Zm33.38 0a2.638 2.638 0 0 0-3.644-2.438 2.638 2.638 0 0 0-1.626 2.438v6.45c0 1.458 1.18 2.64 2.635 2.64a2.638 2.638 0 0 0 2.635-2.64v-6.45Z" fill="#fff" stroke="#00C2FF" strokeWidth=".5" stroke-linecap="round" stroke-linejoin="round"/>
                        <path d="M45.9 53.925h-5.94a3.44 3.44 0 0 0-3.44 3.44v5.94c0 1.9 1.54 3.44 3.44 3.44h5.94c1.9 0 3.44-1.54 3.44-3.44v-5.94c0-1.9-1.54-3.44-3.44-3.44Zm20.43 0h-5.94a3.44 3.44 0 0 0-3.44 3.44v5.94c0 1.9 1.54 3.44 3.44 3.44h5.94c1.9 0 3.44-1.54 3.44-3.44v-5.94c0-1.9-1.54-3.44-3.44-3.44Z" fill="#00C2FF"/>
                        <path d="M86.88 54.055h-5.94a3.44 3.44 0 0 0-3.44 3.44v5.94c0 1.9 1.54 3.44 3.44 3.44h5.94c1.9 0 3.44-1.54 3.44-3.44v-5.94c0-1.9-1.54-3.44-3.44-3.44ZM45.9 73.745h-5.94a3.44 3.44 0 0 0-3.44 3.44v5.94c0 1.9 1.54 3.44 3.44 3.44h5.94c1.9 0 3.44-1.54 3.44-3.44v-5.94c0-1.9-1.54-3.44-3.44-3.44Zm20.43 0h-5.94a3.44 3.44 0 0 0-3.44 3.44v5.94c0 1.9 1.54 3.44 3.44 3.44h5.94c1.9 0 3.44-1.54 3.44-3.44v-5.94c0-1.9-1.54-3.44-3.44-3.44Z" fill="#fff" stroke="#00C2FF" strokeWidth=".25" stroke-linecap="round" stroke-linejoin="round"/>
                        <path d="M86.76 73.745h-5.94a3.44 3.44 0 0 0-3.44 3.44v5.94c0 1.9 1.54 3.44 3.44 3.44h5.94c1.9 0 3.44-1.54 3.44-3.44v-5.94c0-1.9-1.54-3.44-3.44-3.44Z" fill="#00C2FF"/>
                        <path d="M74.84 53.605a2.27 2.27 0 0 0-3.2 0l-6.5 6.5-3.57-3.6a2.27 2.27 0 1 0-3.2 3.21l5.2 5.2a2.28 2.28 0 0 0 3.21 0l8.1-8.1a2.28 2.28 0 0 0-.04-3.21Z" fill="#fff" stroke="#00C2FF" strokeWidth=".25" stroke-linecap="round" stroke-linejoin="round"/>
                        <path d="M134.97 102.785H83.13a7.889 7.889 0 0 0-7.71 7.47v30.22a7.278 7.278 0 0 0 7.3 7.26h51.85a7.358 7.358 0 0 0 3.64-1 7.257 7.257 0 0 0 4.06-6.5v-30.18a7.272 7.272 0 0 0-4.51-6.723 7.275 7.275 0 0 0-2.79-.547Z" fill="#FF6C2C"/>
                        <path d="M129.171 98.695h-51.87a7.28 7.28 0 0 0-7.28 7.28v30.17a7.28 7.28 0 0 0 7.28 7.28h51.87a7.282 7.282 0 0 0 7.28-7.28v-30.17a7.282 7.282 0 0 0-7.28-7.28Z" fill="#fff" stroke="#FF6C2C" strokeWidth=".5" stroke-linecap="round" stroke-linejoin="round"/>
                        <path d="M107.808 111.518c0 1.28.111 2.238.332 2.873.232.625.6.937 1.104.937.968 0 1.451-1.27 1.451-3.81 0-2.52-.483-3.78-1.451-3.78-.504 0-.872.313-1.104.938-.221.615-.332 1.562-.332 2.842Zm6.697-.03c0 2.318-.448 4.062-1.345 5.231-.897 1.159-2.213 1.739-3.946 1.739-1.663 0-2.948-.595-3.856-1.784-.907-1.2-1.36-2.928-1.36-5.186 0-4.606 1.738-6.909 5.216-6.909 1.703 0 3.008.599 3.916 1.799.917 1.189 1.375 2.893 1.375 5.11Zm10.402-6.592L112.646 127h-3.629l12.262-22.104h3.628Zm-1.618 15.452c0 1.28.111 2.237.333 2.872.232.625.6.938 1.104.938.967 0 1.451-1.27 1.451-3.81 0-2.52-.484-3.78-1.451-3.78-.504 0-.872.312-1.104.937-.222.615-.333 1.563-.333 2.843Zm6.698-.031c0 2.309-.448 4.047-1.345 5.216-.897 1.16-2.213 1.739-3.946 1.739-1.664 0-2.949-.595-3.856-1.784-.907-1.199-1.36-2.923-1.36-5.171 0-4.606 1.738-6.909 5.216-6.909 1.703 0 3.008.6 3.915 1.799.918 1.19 1.376 2.893 1.376 5.11Z" fill="#fff"/>
                        <path d="m108.14 114.391-.283.099.002.005.281-.104Zm0-5.715-.281-.104-.001.002.282.102Zm5.02 8.043.237.184.001-.001-.238-.183Zm-7.802-.045-.239.181.001.001.238-.182Zm7.772-10.296-.24.181.002.002.238-.183Zm11.777-1.482.263.146.247-.446h-.51v.3ZM112.646 127v.3h.176l.086-.154-.262-.146Zm-3.629 0-.262-.146-.247.446h.509v-.3Zm12.262-22.104v-.3h-.177l-.086.155.263.145Zm2.343 18.324-.283.099.002.006.281-.105Zm0-5.715-.281-.104-.001.003.282.101Zm5.02 8.028.237.184.001-.001-.238-.183Zm-7.802-.045-.239.181.001.001.238-.182Zm7.771-10.281-.239.181.002.002.237-.183Zm-21.103-3.689c0 1.289.11 2.288.349 2.972l.567-.198c-.205-.586-.316-1.503-.316-2.774h-.6Zm.351 2.977c.127.343.302.628.537.828.241.204.528.305.848.305v-.6a.68.68 0 0 1-.46-.163c-.132-.112-.258-.297-.362-.579l-.563.209Zm1.385 1.133c.314 0 .596-.105.833-.312.23-.202.404-.488.536-.833.262-.688.382-1.684.382-2.965h-.6c0 1.26-.121 2.168-.343 2.751-.11.289-.238.479-.371.595a.63.63 0 0 1-.437.164v.6Zm1.751-4.11c0-1.27-.12-2.26-.382-2.942-.132-.343-.307-.628-.537-.828a1.241 1.241 0 0 0-.832-.31v.6c.17 0 .312.054.438.163.133.115.26.303.37.59.222.578.343 1.478.343 2.727h.6Zm-1.751-4.08c-.32 0-.607.102-.848.306-.235.2-.41.484-.537.828l.563.208c.104-.282.23-.466.362-.578a.675.675 0 0 1 .46-.164v-.6Zm-1.386 1.136c-.24.666-.35 1.656-.35 2.944h.6c0-1.272.111-2.176.315-2.74l-.565-.204Zm6.347 2.914c0 2.288-.444 3.954-1.283 5.049l.476.365c.954-1.244 1.407-3.065 1.407-5.414h-.6Zm-1.282 5.048c-.83 1.071-2.049 1.622-3.709 1.622v.6c1.807 0 3.218-.609 4.183-1.855l-.474-.367Zm-3.709 1.622c-1.582 0-2.774-.56-3.617-1.666l-.477.364c.971 1.273 2.349 1.902 4.094 1.902v-.6Zm-3.616-1.665c-.853-1.127-1.3-2.781-1.3-5.005h-.6c0 2.292.459 4.095 1.421 5.367l.479-.362Zm-1.3-5.005c0-2.274.43-3.925 1.243-5.001.801-1.061 2.007-1.608 3.673-1.608v-.6c-1.811 0-3.214.604-4.152 1.846-.926 1.227-1.364 3.031-1.364 5.363h.6Zm4.916-6.609c1.623 0 2.834.566 3.676 1.68l.479-.362c-.972-1.285-2.372-1.918-4.155-1.918v.6Zm3.678 1.682c.861 1.117 1.313 2.746 1.313 4.927h.6c0-2.253-.465-4.032-1.438-5.293l-.475.366Zm11.753-1.81-12.262 22.103.525.292 12.262-22.104-.525-.291ZM112.646 126.7h-3.629v.6h3.629v-.6Zm-3.366.446 12.261-22.104-.525-.291-12.261 22.103.525.292Zm11.999-21.95h3.628v-.6h-3.628v.6Zm1.71 15.152c0 1.289.111 2.287.35 2.971l.566-.198c-.204-.586-.316-1.502-.316-2.773h-.6Zm.352 2.977c.127.343.301.627.537.827.24.204.528.306.848.306v-.6a.68.68 0 0 1-.46-.163c-.133-.113-.258-.297-.363-.579l-.562.209Zm1.385 1.133c.314 0 .596-.106.832-.313.231-.201.405-.487.537-.833.261-.687.382-1.684.382-2.964h-.6c0 1.259-.121 2.167-.343 2.75-.11.29-.238.48-.371.596a.637.637 0 0 1-.437.164v.6Zm1.751-4.11c0-1.271-.121-2.26-.383-2.943-.131-.343-.306-.627-.537-.827a1.234 1.234 0 0 0-.831-.31v.6c.17 0 .312.053.438.163.132.115.26.303.37.589.222.578.343 1.478.343 2.728h.6Zm-1.751-4.08c-.32 0-.608.101-.848.306-.236.199-.41.484-.537.827l.562.209c.105-.282.23-.466.363-.579a.68.68 0 0 1 .46-.163v-.6Zm-1.386 1.136c-.24.665-.351 1.656-.351 2.944h.6c0-1.272.112-2.177.315-2.741l-.564-.203Zm6.347 2.913c0 2.278-.444 3.939-1.283 5.034l.476.365c.954-1.244 1.407-3.059 1.407-5.399h-.6Zm-1.283 5.033c-.829 1.072-2.049 1.622-3.708 1.622v.6c1.807 0 3.218-.609 4.183-1.855l-.475-.367Zm-3.708 1.622c-1.582 0-2.774-.56-3.617-1.666l-.477.364c.97 1.273 2.349 1.902 4.094 1.902v-.6Zm-3.617-1.665c-.852-1.127-1.299-2.776-1.299-4.99h-.6c0 2.283.459 4.08 1.421 5.352l.478-.362Zm-1.299-4.99c0-2.274.43-3.924 1.243-5.001.801-1.061 2.006-1.608 3.673-1.608v-.6c-1.812 0-3.214.604-4.152 1.847-.926 1.226-1.364 3.03-1.364 5.362h.6Zm4.916-6.609c1.623 0 2.834.566 3.676 1.68l.479-.362c-.972-1.285-2.372-1.918-4.155-1.918v.6Zm3.678 1.682c.861 1.118 1.313 2.746 1.313 4.927h.6c0-2.253-.465-4.031-1.438-5.293l-.475.366Z" fill="#FF6C2C"/>
                        <path d="M73.6 118.565h16.05m-14.34 16.14h7.46-7.46Zm14.27 0h7.46-7.46Zm14.221 0h7.46-7.46Zm13.78 0h7.46-7.46ZM73.6 109.574h23.6-23.6Z" stroke="#FF6C2C" strokeWidth=".5" stroke-linecap="round" stroke-linejoin="round"/>
                        <path d="M44.65 135.385c6.01 0 10.88-4.849 10.88-10.83 0-5.982-4.87-10.83-10.88-10.83-6.008 0-10.88 4.848-10.88 10.83 0 5.981 4.872 10.83 10.88 10.83Z" fill="#FF6C2C"/>
                        <path d="M41.74 133.145c6.01 0 10.88-4.849 10.88-10.83 0-5.982-4.87-10.83-10.88-10.83-6.009 0-10.88 4.848-10.88 10.83 0 5.981 4.871 10.83 10.88 10.83Z" fill="#fff" stroke="#FF6C2C" strokeWidth=".5" stroke-miterlimit="10"/>
                        <path d="M42.36 121.745h-1.23a1.273 1.273 0 0 1-1.354-1.527 1.278 1.278 0 0 1 .835-.942c.167-.056.344-.077.52-.061h2.44a.582.582 0 0 0 .58-.58.579.579 0 0 0-.58-.58h-1.25v-1.26a.579.579 0 0 0-.983-.403.57.57 0 0 0-.167.403v1.26a2.413 2.413 0 0 0-2.41 2.41 2.413 2.413 0 0 0 2.41 2.41h1.23a1.269 1.269 0 1 1 0 2.54h-2.51a.57.57 0 0 0-.57.57.585.585 0 0 0 .57.57h1.28v1.27a.573.573 0 0 0 .352.53.569.569 0 0 0 .624-.127.577.577 0 0 0 .174-.403v-1.26a2.41 2.41 0 0 0 0-4.82h.04-.001Z" fill="#00C2FF"/>
                      </g>
                      <defs>
                        <clipPath id="a">
                          <path fill="#fff" d="M0 0h176v176H0z"/>
                        </clipPath>
                      </defs>
                    </svg>