<svg width="176" height="176" fill="none" xmlns="http://www.w3.org/2000/svg"><path d="M30.31 164.87c-43.264-30.59-36.8-95.707-2.104-135.266 39.733-45.3 102.942-30.11 122.459-10.331 16.26 16.479 45.184 54.487 4.879 119.225C126.811 184.65 53.622 181.353 30.31 164.87Z" fill="#EAFEFD"/><path d="m93.08 53.8-9.311 8.157a3.29 3.29 0 0 1-4.131.01l-9.308-8.146a1.32 1.32 0 0 1-.33-.87c0-.608.411-1.116.969-1.273 0 0 .134-.051.329-.051h2.742v-8.5c0-1.223.92-2.127 2.14-2.127h11.033c1.219 0 2.139.904 2.139 2.127v8.5h2.69c.009 0 .017-.003.026-.003.009 0 .017.003.026.003h.031l.002.003a1.318 1.318 0 0 1 .953 2.17Z" fill="#00C2FF"/><path d="M86.62 47.073a1.267 1.267 0 0 0-1.787 0l-3.628 3.63-1.993-2.01a1.268 1.268 0 1 0-1.787 1.791l2.903 2.903a1.273 1.273 0 0 0 1.792 0l4.522-4.522a1.273 1.273 0 0 0-.022-1.792v0Z" fill="#fff" stroke="#00C2FF" stroke-linecap="round" stroke-linejoin="round"/><path d="m110 123.728 3.708-3.663 7.152 6.28L134.902 113l3.445 3.663-18.013 16.747L110 123.728Z" fill="#FF6C2C"/><path d="M28.683 83.298c1.666-2.294 6.265-6.835 11.341-6.651" stroke="#FF6C2C" stroke-linecap="round" stroke-dasharray="1.95 1.95"/><path d="m38.837 78.472 2.1-1.231-1.232-2.1" stroke="#FF6C2C" stroke-linecap="round"/><path d="m78.357 91.08 16.372 28.773L150 88.403 133.628 59.63 78.357 91.08Z" fill="#FF6C2C"/><path d="m80.75 90.103 22.904 23.902 47.914-42.998-24.904-24.902-45.915 43.998Z" fill="#FF6C2C"/><path d="m76.641 91.47 25.526 21.08 39.949-48.376-25.526-21.08L76.641 91.47Z" fill="#fff" stroke="#FF6C2C" stroke-linecap="round" stroke-linejoin="round"/><path d="m83.092 93.185 16.023 13.234a3.47 3.47 0 0 1 4.402 0l.152.136 32.403-39.229c-.051-.04-.111-.077-.162-.122a3.47 3.47 0 0 1-.455-4.875l-15.919-13.16a3.47 3.47 0 0 1-4.89.45L82.243 88.86a3.48 3.48 0 0 1 .85 4.326Z" fill="#fff" stroke="#FF6C2C" stroke-linecap="round" stroke-linejoin="round"/><path d="M104.758 87.633a11.008 11.008 0 0 0 12.318-17.555M99.133 82.529a10.973 10.973 0 0 0 3.143 3.7m11.262-18.781a11.007 11.007 0 0 0-15.007 13.615" stroke="#FF6C2C" stroke-linecap="round" stroke-linejoin="round"/><path d="M118.986 77.443c0-5.567-4.513-10.08-10.08-10.08s-10.08 4.513-10.08 10.08 4.513 10.08 10.08 10.08 10.08-4.513 10.08-10.08Z" fill="#FF6C2C"/><path d="M109.475 83.678c-.215.056-.441.04-.646-.045a.94.94 0 0 1-.466-.37 1.378 1.378 0 0 1-.203-.568.844.844 0 0 1 .144-.587 1.4 1.4 0 0 1 .58-.454c.048-.023.185-.082.41-.174.225-.092.414-.174.573-.248.21-.105.412-.229.602-.369.25-.18.48-.387.687-.617a3.14 3.14 0 0 0 .45-.539c.141-.195.264-.401.37-.617.093-.192.132-.407.11-.62a.763.763 0 0 0-.303-.532.705.705 0 0 0-.613-.089 2.448 2.448 0 0 0-.901.458l-1.219.868c-.465.322-.849.573-1.148.739a6.886 6.886 0 0 1-.972.487 2.434 2.434 0 0 1-.942.215 2.539 2.539 0 0 1-.875-.17 3.276 3.276 0 0 1-.949-.576 2.664 2.664 0 0 1-.986-2.527c.128-1.034.696-2.092 1.706-3.173a6.62 6.62 0 0 1 .897-.83 7.25 7.25 0 0 1 .739-.518 9.79 9.79 0 0 1 .739-.37c.222-.112.474-.152.72-.114a.994.994 0 0 1 .573.274c.141.144.247.318.31.51a.741.741 0 0 1-.052.598 1.36 1.36 0 0 1-.517.528 9.06 9.06 0 0 0-1.743 1.322c-.187.192-.36.397-.517.613-.167.218-.281.47-.333.74a.589.589 0 0 0 .166.586.72.72 0 0 0 .632.16c.315-.104.607-.267.861-.48l1.189-.884c.416-.304.849-.583 1.296-.838.363-.199.75-.348 1.153-.443a2.342 2.342 0 0 1 1.152 0c.406.126.783.332 1.108.605a3.092 3.092 0 0 1 1.145 1.722c.159.68.107 1.392-.148 2.042a6.336 6.336 0 0 1-1.292 2.046 7.298 7.298 0 0 1-3.487 2.239Zm-6.962-10.102a.676.676 0 0 1-.281-.525.74.74 0 0 1 .17-.506.738.738 0 0 1 .476-.25.67.67 0 0 1 .558.165l2.02 1.68-.919 1.109-2.024-1.673Zm9.736 7.782.927-1.108 2.006 1.647a.677.677 0 0 1 .265.695.731.731 0 0 1-.45.558.668.668 0 0 1-.739-.137l-2.009-1.655Z" fill="#fff" stroke="#FF6C2C" stroke-miterlimit="10"/><path d="m76.616 90.996 22.22 24.54 46.506-42.11-22.22-24.54-46.506 42.11Z" fill="#fff" stroke="#FF6C2C" stroke-linecap="round" stroke-linejoin="round"/><path d="m82.76 93.602 13.943 15.402a3.484 3.484 0 0 1 4.358.65l.129.159 37.73-34.172-.144-.145a3.476 3.476 0 0 1 .229-4.904L125.15 55.303a3.48 3.48 0 0 1-4.908-.244l-37.7 34.143a3.476 3.476 0 0 1 .217 4.4v0Z" fill="#fff" stroke="#FF6C2C" stroke-linecap="round" stroke-linejoin="round"/><path d="M104.998 91.235a11.004 11.004 0 0 0 14.719-15.617m-19.539 9.747a10.994 10.994 0 0 0 2.235 3.757l.343.37m13.818-16.969a11.004 11.004 0 0 0-16.81 11.306" stroke="#FF6C2C" stroke-linecap="round" stroke-linejoin="round"/><path d="M117.697 74.617c-3.936-3.936-10.319-3.936-14.255 0s-3.936 10.319 0 14.255 10.319 3.936 14.255 0 3.936-10.319 0-14.255Z" fill="#FF6C2C"/><path d="M110.214 87.995a.995.995 0 0 1-.632-.136.97.97 0 0 1-.406-.447 1.397 1.397 0 0 1-.118-.591.812.812 0 0 1 .229-.562 1.38 1.38 0 0 1 .635-.369c.052 0 .196-.055.428-.11.233-.056.44-.115.602-.167.227-.074.446-.17.654-.284.274-.143.532-.316.768-.514a2.98 2.98 0 0 0 .525-.465c.16-.177.307-.364.439-.562a1.1 1.1 0 0 0 .196-.594.758.758 0 0 0-.218-.573.697.697 0 0 0-.598-.173 2.365 2.365 0 0 0-.953.317l-1.333.683c-.51.255-.924.447-1.245.584a7.398 7.398 0 0 1-1.034.34 2.419 2.419 0 0 1-.961.081 2.58 2.58 0 0 1-.845-.299 3.332 3.332 0 0 1-.854-.702 2.662 2.662 0 0 1-.613-2.644c.278-1.008.995-1.973 2.15-2.896a7.466 7.466 0 0 1 1.821-1.108c.203-.078.469-.17.801-.273.24-.078.499-.078.739 0a.998.998 0 0 1 .524.369c.119.162.199.35.237.546a.736.736 0 0 1-.137.584 1.343 1.343 0 0 1-.591.45 9.071 9.071 0 0 0-1.917 1.057 8.62 8.62 0 0 0-.598.536 1.669 1.669 0 0 0-.432.668.554.554 0 0 0 .081.606.691.691 0 0 0 .598.247c.329-.058.642-.184.92-.369l1.308-.698a12.99 12.99 0 0 1 1.403-.646c.386-.145.79-.237 1.201-.274.389-.036.782.026 1.141.181a3.248 3.248 0 0 1 1.477 4.628 6.315 6.315 0 0 1-1.577 1.847 7.268 7.268 0 0 1-3.815 1.732Zm-5.433-11a.685.685 0 0 1-.204-.56.741.741 0 0 1 .244-.473.74.74 0 0 1 .506-.181.662.662 0 0 1 .525.243l1.776 1.958-1.067.96-1.78-1.946Zm8.495 9.11 1.082-.98 1.784 1.95a.673.673 0 0 1 .159.74.746.746 0 0 1-.532.494.666.666 0 0 1-.709-.24l-1.784-1.965Z" fill="#fff" stroke="#FF6C2C" stroke-miterlimit="10"/><path d="m76.718 90.26 16.372 28.774 54.529-31.028-16.372-28.773L76.718 90.26Z" fill="#fff" stroke="#FF6C2C" stroke-linecap="round" stroke-linejoin="round"/><path d="m82.143 94.138 10.282 18.046a3.474 3.474 0 0 1 4.122 1.589l.093.184 44.23-25.179a2.225 2.225 0 0 1-.107-.17 3.472 3.472 0 0 1 1.296-4.72v0l-10.209-17.94a3.474 3.474 0 0 1-4.738-1.3l-44.23 25.15a3.476 3.476 0 0 1-.74 4.34v0Z" fill="#fff" stroke="#FF6C2C" stroke-linecap="round" stroke-linejoin="round"/><path d="M104.374 96.646a11.002 11.002 0 0 0 17.751-12.041m-21.186 5.278a11.01 11.01 0 0 0 1.367 4.148c.085.144.169.288.258.428m17.168-13.57a11.009 11.009 0 0 0-16.862 1.37 11.002 11.002 0 0 0-2.001 6.017" stroke="#FF6C2C" stroke-linecap="round" stroke-linejoin="round"/><path d="M121.951 88.594c0-5.567-4.512-10.08-10.079-10.08-5.567 0-10.08 4.513-10.08 10.08s4.513 10.08 10.08 10.08 10.079-4.514 10.079-10.08Z" fill="#FF6C2C"/><path d="M110.173 94.6a1.003 1.003 0 0 1-.587-.27.977.977 0 0 1-.3-.525 1.407 1.407 0 0 1 0-.606.822.822 0 0 1 .344-.495 1.35 1.35 0 0 1 .702-.221h.443c.209.007.417-.003.624-.03.236-.025.47-.07.698-.136a4.45 4.45 0 0 0 .861-.336c.217-.09.423-.203.613-.34.196-.136.38-.288.55-.455.157-.145.269-.332.322-.539a.792.792 0 0 0-.089-.606.71.71 0 0 0-.547-.299 2.36 2.36 0 0 0-1.001.107l-1.451.37c-.55.136-.997.236-1.337.299a7.47 7.47 0 0 1-1.086.11 2.474 2.474 0 0 1-.957-.132 2.685 2.685 0 0 1-.757-.473 3.338 3.338 0 0 1-.683-.875 2.646 2.646 0 0 1-.022-2.712c.492-.923 1.399-1.71 2.722-2.36a7.328 7.328 0 0 1 1.134-.458 7.16 7.16 0 0 1 .882-.218c.215-.033.495-.066.843-.092.248-.03.499.023.716.148a.986.986 0 0 1 .436.458c.081.185.119.385.111.587a.73.73 0 0 1-.259.54c-.194.17-.432.282-.687.324a9.077 9.077 0 0 0-2.098.617 9.142 9.142 0 0 0-.701.392 1.75 1.75 0 0 0-.569.561.568.568 0 0 0-.052.606.688.688 0 0 0 .532.37c.331.014.662-.035.975-.145l1.426-.399c.496-.14 1-.248 1.51-.325.41-.055.825-.055 1.234 0 .385.04.754.175 1.075.392.344.261.63.59.842.968a3.07 3.07 0 0 1 .458 2.016 3.477 3.477 0 0 1-.861 1.847 6.302 6.302 0 0 1-1.924 1.459 7.28 7.28 0 0 1-4.085.875Zm-2.918-11.916a.688.688 0 0 1-.078-.591.722.722 0 0 1 .34-.41.74.74 0 0 1 .809.061c.08.064.145.146.189.238l1.311 2.316-1.263.698-1.308-2.312Zm6.334 10.711 1.271-.739 1.296 2.313a.666.666 0 0 1 0 .738.753.753 0 0 1-.627.37.674.674 0 0 1-.639-.392l-1.301-2.29Z" fill="#fff"/><path d="M55.596 89.206s.244-12.557-10.144-18.935h32.923s9.413 7.628 9.491 18.935h-32.27Z" fill="#00C2FF" stroke="#00C2FF" stroke-linecap="round" stroke-linejoin="round"/><path d="M52.674 89.206s.244-12.557-10.144-18.935h32.923s9.413 7.628 9.492 18.935H52.674Z" fill="#fff" stroke="#00C2FF" stroke-linecap="round" stroke-linejoin="round"/><path d="M89.95 91.09H38.11a7.889 7.889 0 0 0-7.71 7.47v30.22a7.278 7.278 0 0 0 7.3 7.26h51.85a7.36 7.36 0 0 0 3.64-1 7.25 7.25 0 0 0 4.06-6.5V98.36a7.273 7.273 0 0 0-7.3-7.27Z" fill="#00C2FF"/><path d="M84.15 87H32.28A7.28 7.28 0 0 0 25 94.28v30.17a7.28 7.28 0 0 0 7.28 7.28h51.87a7.28 7.28 0 0 0 7.28-7.28V94.28A7.28 7.28 0 0 0 84.15 87v0Z" fill="#fff" stroke="#00C2FF" stroke-linecap="round" stroke-linejoin="round"/><path d="M72.943 74.85c0 .042-3.761.076-8.407.076s-8.407-.034-8.407-.076c0-.042 3.76-.073 8.407-.073 4.646 0 8.407.034 8.407.073Zm3.592 2.273c0 .039-4.982.072-11.128.072-6.145 0-11.127-.033-11.127-.072 0-.04 4.982-.076 11.127-.076 6.146 0 11.128.034 11.128.076Zm1.872 5.744c0 .04-4.982.073-11.128.073-6.145 0-11.13-.034-11.13-.073 0-.04 4.982-.073 11.13-.073 6.148 0 11.128.034 11.128.073Zm-11.629-3.13c-.15.023-.302.033-.454.031l-1.244.022c-1.051.014-2.5.023-4.103.023-1.603 0-3.051 0-4.102-.023l-1.245-.022a2.748 2.748 0 0 1-.454-.03c.15-.023.303-.032.454-.029l1.245-.022c1.05 0 2.5-.023 4.102-.023 1.603 0 3.052 0 4.103.023l1.244.022c.152-.003.303.006.454.028Zm9.757 0c-.11.023-.223.033-.336.031l-.92.022c-.773.014-1.846.023-3.028.023-1.183 0-2.256 0-3.03-.023l-.919-.022a1.507 1.507 0 0 1-.336-.03c.11-.021.223-.03.336-.029l.92-.022c.773 0 1.846-.023 3.029-.023 1.182 0 2.241 0 3.029.023l.919.022c.113-.003.225.006.336.028Zm-7.692 6.21a2.76 2.76 0 0 1-.457.03L67.145 86c-1.051 0-2.503.022-4.103.022-1.6 0-3.054 0-4.105-.022l-1.241-.022a2.76 2.76 0 0 1-.457-.031c.151-.022.304-.032.457-.028l1.241-.023c1.05 0 2.503-.022 4.105-.022 1.603 0 3.052 0 4.103.022l1.241.023c.153-.004.306.006.457.028Zm9.757 0c-.11.023-.223.033-.336.03l-.919.023c-.776 0-1.847.022-3.03.022-1.182 0-2.241 0-3.031-.022l-.92-.022a1.501 1.501 0 0 1-.336-.031 1.7 1.7 0 0 1 .337-.028l.919-.023c.776 0 1.846-.022 3.032-.022 1.185 0 2.242 0 3.029.022l.92.023a1.7 1.7 0 0 1 .335.028Z" fill="#00C2FF"/><circle cx="75.488" cy="102.007" r="10.007" fill="#00C2FF" stroke="#00C2FF" stroke-linecap="round" stroke-linejoin="round"/><circle cx="66.007" cy="102.007" r="10.007" fill="#fff" stroke="#00C2FF" stroke-linecap="round" stroke-linejoin="round"/><rect x="30" y="92" width="19.551" height="7.038" rx="3.519" fill="#FF6C2C"/><path d="M30 124.167h7.171m5.326 0h5.834m5.288 0h5.834m4.943 0h5.834M30 104.513h18.456M30 111.544h12.552" stroke="#00C2FF" stroke-linecap="round" stroke-linejoin="round"/></svg>