<svg width="176" height="176" fill="none" xmlns="http://www.w3.org/2000/svg"><g clip-path="url(#a)"><path d="M141 23.7c21.541 22.144 32.517 55.935 34.765 84.209 1.458 18.327-3.766 37.663-18.805 47.661-20.331 13.515-87.528 38.278-125.552 0-2.776-2.795-40.59-48.433-29.314-94.225 5.53-22.46 16.725-47.688 41.482-57.52C66.823-5.41 120.29 2.408 141 23.699Z" fill="#E9F7FF"/><path d="M56.24 137.33h77.16a4.595 4.595 0 0 0 3.246-1.344 4.595 4.595 0 0 0 1.344-3.246V72.61a4.593 4.593 0 0 0-4.59-4.59H56.24a4.59 4.59 0 0 0-4.59 4.59v60.13a4.592 4.592 0 0 0 4.59 4.59Z" fill="#00C2FF"/><path d="M60.14 132.63h69.75a4.136 4.136 0 0 0 2.927-1.213 4.136 4.136 0 0 0 1.213-2.927V74.14a4.138 4.138 0 0 0-4.14-4.14H60.14A4.14 4.14 0 0 0 56 74.14v54.35a4.138 4.138 0 0 0 4.14 4.14Z" fill="#fff"/><path d="M89 76h13" stroke="#FFA332" stroke-linecap="round"/><path d="M44.62 122.289H30.708a1.51 1.51 0 0 1-1.497-1.707l.824-6.269a7.682 7.682 0 0 1 7.626-6.648 7.686 7.686 0 0 1 7.613 6.648l.825 6.269a1.516 1.516 0 0 1-.356 1.187 1.519 1.519 0 0 1-1.125.52Zm-6.958-17.708c3.2 0 5.794-2.593 5.794-5.79A5.792 5.792 0 0 0 37.662 93a5.792 5.792 0 0 0-5.795 5.79 5.793 5.793 0 0 0 5.795 5.791Z" fill="#FF6C2C" stroke="#FF6C2C" stroke-miterlimit="10"/><path d="M43.42 122.289H29.51a1.51 1.51 0 0 1-1.497-1.707l.825-6.269a7.682 7.682 0 0 1 7.625-6.648 7.686 7.686 0 0 1 7.613 6.648l.825 6.269a1.514 1.514 0 0 1-.862 1.568 1.5 1.5 0 0 1-.618.139Zm-6.957-17.708c3.2 0 5.795-2.593 5.795-5.79A5.792 5.792 0 0 0 36.463 93a5.792 5.792 0 0 0-5.794 5.79 5.793 5.793 0 0 0 5.794 5.791Z" fill="#fff" stroke="#FF6C2C" stroke-miterlimit="10"/><path d="M135.26 139H55.67a12.74 12.74 0 0 1-12.74-12.74H148A12.744 12.744 0 0 1 135.26 139Z" fill="#00C2FF"/><path d="M102.82 132.33H88.1a9.847 9.847 0 0 1-7.76-3.8l-2-2.57h34.25l-2 2.57a9.861 9.861 0 0 1-7.77 3.8Z" fill="#fff"/><path d="M39.879 41.627H72.11a4.772 4.772 0 0 1 4.771 4.772v21.179a4.772 4.772 0 0 1-4.772 4.772H53.826l-4.82 3.53-4.913 3.6v-7.13H39.88a4.772 4.772 0 0 1-4.717-4.772V46.399a4.764 4.764 0 0 1 4.717-4.772Z" fill="#FF6C2C"/><path d="M37.78 40h32.23a4.772 4.772 0 0 1 4.772 4.772v21.226a4.772 4.772 0 0 1-4.772 4.772H51.67l-4.811 3.522-4.922 3.608v-7.17H37.78A4.78 4.78 0 0 1 33 65.958V44.772A4.78 4.78 0 0 1 37.78 40Z" fill="#fff" stroke="#FF6C2C" stroke-linecap="round" stroke-linejoin="round"/><path d="m68.98 45.508-1.761 5.5a.39.39 0 0 1-.652.152l-.912-.941a.39.39 0 0 0-.542-.018l-7.667 6.963a.39.39 0 0 1-.511.011l-4.865-4.047a.393.393 0 0 0-.508.007L42 61.615V58.07l9.52-8.103a.39.39 0 0 1 .508-.007l2.066 1.72 2.776 2.315a.392.392 0 0 0 .51-.01l6.055-5.498a.389.389 0 0 0 .029-.549l-.01-.01-.897-.929a.391.391 0 0 1 .193-.65l5.776-1.34a.39.39 0 0 1 .466.295.397.397 0 0 1-.012.204Zm-27.844 3.14h-.967a1.004 1.004 0 0 1-1.002-.593 1.002 1.002 0 0 1 .594-1.348.992.992 0 0 1 .409-.049h1.918a.454.454 0 0 0 .421-.63.458.458 0 0 0-.421-.281h-.983v-.99a.456.456 0 0 0-.456-.449.448.448 0 0 0-.448.448v.99a1.896 1.896 0 0 0-1.895 1.895 1.897 1.897 0 0 0 1.895 1.895h.967a.995.995 0 0 1 .998.998 1 1 0 0 1-.998.999h-1.973a.448.448 0 0 0-.448.448.458.458 0 0 0 .448.448H40.2v.998a.447.447 0 0 0 .767.317.453.453 0 0 0 .137-.317v-.99a1.895 1.895 0 1 0 0-3.79h.032-.001Z" fill="#00C2FF"/><path d="M39.879 64.355h29.48" stroke="#00C2FF" stroke-linecap="round"/><rect x="64.5" y="81.5" width="60" height="39" rx="1.5" stroke="#FF6C2C"/><path d="M65 93h59m-24-5v32.5m13-33V120m-48-20h59m-59 7h59m-59 7h59" stroke="#FF6C2C" stroke-linecap="round"/><path fill="#FFA332" stroke="#FF6C2C" d="M65.5 82.5h58v5h-58z"/><path d="M128.38 110.98h-5.94a3.44 3.44 0 0 0-3.44 3.44v5.94c0 1.9 1.54 3.44 3.44 3.44h5.94c1.9 0 3.44-1.54 3.44-3.44v-5.94c0-1.9-1.54-3.44-3.44-3.44Z" fill="#00C2FF"/><path d="M136.89 110.66a2.269 2.269 0 0 0-3.2 0l-6.5 6.5-3.57-3.6a2.263 2.263 0 0 0-1.631-.756 2.268 2.268 0 0 0-2.33 2.338 2.28 2.28 0 0 0 .761 1.628l5.2 5.2a2.28 2.28 0 0 0 3.21 0l8.1-8.1a2.281 2.281 0 0 0-.04-3.21Z" fill="#fff" stroke="#00C2FF" stroke-linecap="round" stroke-linejoin="round"/><path d="m116 73.904 2.905.751L120 72.5" stroke="#00C2FF" stroke-linecap="round"/><path d="M82 53c10.167.833 31.7 6.3 36.5 21.5" stroke="#00C2FF" stroke-linecap="round" stroke-dasharray="2 2"/><path d="M47 118.5c2.667 1.167 9.1 2.8 13.5 0" stroke="#FFA332" stroke-linecap="round" stroke-dasharray="2 2"/><path d="M58.5 117.5H61v2.5" stroke="#FFA332" stroke-linecap="round"/></g><defs><clipPath id="a"><path fill="#fff" d="M0 0h176v176H0z"/></clipPath></defs></svg>